<svg width="123" height="37" viewBox="0 0 123 37" fill="none" xmlns="http://www.w3.org/2000/svg">
<path fill-rule="evenodd" clip-rule="evenodd" d="M33.1334 36.0939H0.609375L8.06139 8.3329H20.8934L10.0854 0.73291H42.6094L40.5864 8.3329H23.1644L21.4644 14.6249H36.4154L34.3914 22.2009H19.4374L17.7594 28.5189H35.1814L33.1334 36.0939ZM75.9474 36.0939L59.5614 36.0689L53.4414 27.7289L51.1954 36.0939H36.0954L43.5474 8.3329H56.3784L45.5704 0.73291H73.0104C78.1924 0.73291 80.7834 2.77425 80.7834 6.8569C80.76 8.12567 80.5776 9.38652 80.2404 10.6099L79.3764 13.7959C77.5997 20.4299 73.4294 23.7222 66.8654 23.6729L75.9474 36.0939ZM64.7194 12.2079C64.8268 11.8051 64.8849 11.3907 64.8924 10.9739C64.8924 9.21391 63.535 8.33391 60.8204 8.33391H58.6484L56.5484 16.1069H58.7254C62.0141 16.1062 64.012 14.8066 64.7194 12.2079ZM120.71 13.8009C118.95 20.3882 114.78 23.6819 108.199 23.6819H95.8604L92.5254 36.0939H77.4254L84.8774 8.3329H97.7094L86.9014 0.73291H114.341C119.523 0.73291 122.114 2.7749 122.114 6.8589C122.091 8.12833 121.909 9.38985 121.571 10.6139L120.71 13.8009ZM106.052 12.2079C106.16 11.8051 106.218 11.3907 106.225 10.9739C106.225 9.21391 104.868 8.33391 102.153 8.33391H99.9814L97.8814 16.1069H100.053C103.345 16.1062 105.344 14.8066 106.052 12.2079Z" fill="white"/>
</svg>
