<svg width="19" height="13" viewBox="0 0 19 13" fill="none" xmlns="http://www.w3.org/2000/svg">
<path fill-rule="evenodd" clip-rule="evenodd" d="M9.85968 12.75C7.86211 12.7656 5.90941 12.1577 4.27368 11.011C2.64984 9.90237 1.39746 8.33047 0.679688 6.49998C1.39789 4.66947 2.65015 3.09735 4.27368 1.98799C5.90982 0.842204 7.86231 0.234721 9.85968 0.24998C11.8511 0.232997 13.7978 0.840846 15.4257 1.98799C17.0402 3.102 18.2849 4.67327 18.9997 6.49998C18.2854 8.32696 17.0406 9.89837 15.4257 11.012C13.798 12.1597 11.8512 12.7676 9.8597 12.75H9.85968ZM9.85968 2.31999C8.74939 2.30708 7.68277 2.75196 6.91069 3.54998C6.11185 4.32199 5.66653 5.38914 5.67969 6.49998C5.66666 7.61079 6.11194 8.6779 6.91069 9.44998C7.68275 10.248 8.74939 10.6929 9.8597 10.68C10.9645 10.6949 12.0257 10.2492 12.7887 9.44998C13.5766 8.67218 14.0139 7.60705 13.9997 6.49998C14.014 5.39286 13.5767 4.32769 12.7887 3.54997C12.0257 2.7507 10.9645 2.30506 9.85968 2.31997V2.31999ZM9.83969 8.99998C9.17847 9.01176 8.54169 8.75018 8.07968 8.27699C7.60587 7.80863 7.3455 7.16604 7.35968 6.49998C7.3454 5.83387 7.60577 5.19125 8.0797 4.72297C8.54169 4.24978 9.17847 3.9882 9.83969 3.99998C10.5056 3.9911 11.1469 4.25186 11.6177 4.72299C12.1032 5.18513 12.3724 5.82983 12.3597 6.49998C12.3722 7.17012 12.1031 7.81477 11.6177 8.27699C11.1469 8.7481 10.5056 9.00886 9.83969 8.99998Z" fill="#C6CBD4"/>
</svg>
